<?xml version="1.0" encoding="utf-8"?>
<!-- Generator: Adobe Illustrator 20.0.0, SVG Export Plug-In . SVG Version: 6.00 Build 0)  -->
<svg version="1.1" id="图层_1" xmlns="http://www.w3.org/2000/svg" xmlns:xlink="http://www.w3.org/1999/xlink" x="0px" y="0px"
	 viewBox="0 0 175.6 71.4" style="enable-background:new 0 0 175.6 71.4;" xml:space="preserve">
<style type="text/css">
	.st0{clip-path:url(#SVGID_2_);fill:#040000;}
	.st1{clip-path:url(#SVGID_2_);fill:#C82022;}
</style>
<g>
	<defs>
		<rect id="SVGID_1_" width="175.6" height="71.4"/>
	</defs>
	<clipPath id="SVGID_2_">
		<use xlink:href="#SVGID_1_"  style="overflow:visible;"/>
	</clipPath>
	<path class="st0" d="M7.4,62.8H4.7l-0.5-5.7h2.7L7.4,62.8z M168.2,62.8h2.7l0.5-5.7h-2.7L168.2,62.8z M2.7,57.1H0l0.5,5.7h2.7
		L2.7,57.1z M172.4,62.8h2.7l0.5-5.7h-2.7L172.4,62.8z M20.8,64.2c0,2-1.4,3.7-3.6,3.7c-2.2,0-3.6-1.8-3.6-3.8v0
		c0-2,1.4-3.7,3.6-3.7C19.3,60.4,20.8,62.2,20.8,64.2L20.8,64.2 M9.6,64.2c0,4,3.2,7.2,7.6,7.2c4.4,0,7.7-3.3,7.7-7.3v0
		c0-4-3.2-7.2-7.6-7.2C12.8,56.9,9.6,60.2,9.6,64.2L9.6,64.2 M27.3,71.2h3.9v-5h6.7V63h-6.7v-2.4h7.4v-3.4H27.3V71.2z M40.9,71.2
		h3.9v-5h6.7V63h-6.7v-2.4h7.4v-3.4H40.9V71.2z M63.4,71.2h3.9V60.6h4.3v-3.4H59.1v3.4h4.3V71.2z M74.2,71.2h3.9v-5.3h5.1v5.3h3.9
		v-14h-3.9v5.2h-5.1v-5.2h-3.9V71.2z M89.8,71.2h11.5v-3.3h-7.6v-2.2h6.8v-3.1h-6.8v-2.1h7.5v-3.3H89.8V71.2z M112.1,71.3h3.4l2.8-8
		l2.9,8h3.4l4.7-14.1h-4.1l-2.5,8.1l-2.7-8.1h-3.4l-2.7,8.1l-2.5-8.1h-4.2L112.1,71.3z M134,65.6l1.6-4l1.6,4H134z M127.7,71.2h4.1
		l1-2.5h5.5l1,2.5h4.2l-6-14.1h-3.8L127.7,71.2z M145.5,71.2h10.8v-3.4h-6.9V57.2h-3.9V71.2z M158.5,71.2h10.8v-3.4h-6.9V57.2h-3.9
		V71.2z"/>
	<path class="st1" d="M152.2,22.1h-7.6c-0.7-1.9-1.6-3.3-5.8-3.3c-3,0-4.2,1.2-4.2,2.4c0,1.3,1.1,2.5,4.3,3.2l6.9,1.8
		c4.5,1.2,6.7,4.8,6.7,8.6c0,2.1-0.5,4.7-2.5,6.7c-1.5,1.6-3.8,3.6-11.3,3.6c-10.3,0-13.7-6.5-13.7-10.5h8c0.8,2.9,2.8,4,6.7,4
		c2.7,0,5-1,5-3c0-2-1.7-2.7-3.9-3.3l-5.5-1.5c-2.6-0.8-4.8-1.4-6.4-2.8c-4.1-3.4-3.8-9.7,0.7-12.9c2.5-1.8,5-2.7,8.9-2.7
		c4.7,0,7.4,1.3,9.5,2.8C150,16.5,152.2,19.6,152.2,22.1 M23.3,0c0.1,0.3,16,44.8,16,44.8h9.5l14.6-37h90.8l0.7-7.7H56.4L44.3,30.7
		L33.4,0H23.3 M101.9,28.8l11.9,16h7.4V13.1h-8.6v17.2l-10.8-17.2h-8.2v31.7h8.2V28.8z M155.3,43.1c0-0.9-0.7-1.7-1.7-1.7
		c-0.9,0-1.7,0.8-1.7,1.7c0,0.9,0.7,1.7,1.7,1.7C154.5,44.8,155.3,44.1,155.3,43.1 M155.1,43.1c0,0.8-0.6,1.5-1.5,1.5
		c-0.8,0-1.5-0.7-1.5-1.5c0-0.8,0.6-1.5,1.5-1.5C154.4,41.6,155.1,42.3,155.1,43.1 M154.4,42.8c0-0.4-0.3-0.6-0.7-0.6h-0.8V44h0.4
		v-0.6h0.3L154,44h0.5l-0.4-0.6C154.2,43.3,154.4,43.1,154.4,42.8 M154,42.8c0,0.2-0.1,0.3-0.3,0.3h-0.4v-0.5h0.4
		C153.9,42.6,154,42.6,154,42.8 M56.6,44.8h9.1l1.7-5h12.1l1.7,5h9L78.7,13.1h-9.6L56.6,44.8z M70,34.1l3.5-10.5L77,34.1H70z"/>
</g>
</svg>
